<?xml version="1.0" encoding="utf-8"?>
<!-- Generator: Adobe Illustrator 26.3.1, SVG Export Plug-In . SVG Version: 6.00 Build 0)  -->
<svg version="1.1" id="레이어_1" xmlns="http://www.w3.org/2000/svg" xmlns:xlink="http://www.w3.org/1999/xlink" x="0px"
	 y="0px" viewBox="0 0 690 122" enable-background="new 0 0 690 122" xml:space="preserve">
<path fill="#FFFFFF" d="M178.186,90.605V27.763h24.609c20.801,0,31.201,9.902,31.201,29.707c0,22.09-10.4,33.135-31.201,33.135
	H178.186z M202.795,80.497c13.037,0,19.556-7.676,19.556-23.027c0-13.066-6.518-19.6-19.556-19.6h-12.964v42.627H202.795z"/>
<path fill="#FFFFFF" d="M239.418,76.234c0-9.17,6.68-13.755,20.039-13.755c3.135,0,6.269,0.293,9.404,0.879v-3.472
	c0-4.131-2.974-6.196-8.921-6.196c-5.039,0-10.635,0.733-16.787,2.197v-9.229c6.152-1.465,11.748-2.197,16.787-2.197
	c13.711,0,20.566,5.068,20.566,15.205v30.938h-6.768l-4.131-4.131c-4.014,2.754-8.438,4.131-13.271,4.131
	C245.058,90.605,239.418,85.815,239.418,76.234z M259.457,70.39c-5.596,0-8.394,1.904-8.394,5.713c0,4.102,2.344,6.152,7.031,6.152
	c3.867,0,7.456-1.201,10.767-3.604v-7.383C265.932,70.683,262.797,70.39,259.457,70.39z"/>
<path fill="#FFFFFF" d="M301.969,27.763v9.228h-11.646v-9.228H301.969z M301.969,44.462v46.143h-11.646V44.462H301.969z"/>
<path fill="#FFFFFF" d="M311.785,90.605V44.462h9.009l1.45,6.768c4.424-4.512,9.463-6.768,15.117-6.768
	c10.928,0,16.392,5.684,16.392,17.051v29.092h-11.645V61.513c0-5.098-2.534-7.646-7.603-7.646c-3.779,0-7.471,1.509-11.074,4.526
	v32.212H311.785z"/>
<path fill="#FFFFFF" d="M394.919,27.763v52.734h24.961v10.107h-36.606V27.763H394.919z"/>
<path fill="#FFFFFF" d="M448.065,44.462c14.004,0,21.006,7.149,21.006,21.445c0,1.904-0.132,3.809-0.395,5.713h-30.63
	c0,6.504,4.775,9.756,14.326,9.756c4.658,0,9.316-0.44,13.975-1.318v9.229c-4.072,0.879-9.023,1.318-14.854,1.318
	c-16.728,0-25.093-7.866-25.093-23.599C426.4,51.977,433.622,44.462,448.065,44.462z M438.046,63.534h19.688v-0.352
	c0-6.387-3.223-9.58-9.668-9.58C441.913,53.603,438.573,56.913,438.046,63.534z"/>
<path fill="#FFFFFF" d="M474.448,76.234c0-9.17,6.68-13.755,20.039-13.755c3.135,0,6.27,0.293,9.404,0.879v-3.472
	c0-4.131-2.974-6.196-8.921-6.196c-5.039,0-10.635,0.733-16.787,2.197v-9.229c6.152-1.465,11.748-2.197,16.787-2.197
	c13.711,0,20.566,5.068,20.566,15.205v30.938h-6.768l-4.131-4.131c-4.014,2.754-8.438,4.131-13.272,4.131
	C480.088,90.605,474.448,85.815,474.448,76.234z M494.487,70.39c-5.596,0-8.394,1.904-8.394,5.713c0,4.102,2.344,6.152,7.031,6.152
	c3.867,0,7.456-1.201,10.767-3.604v-7.383C500.962,70.683,497.827,70.39,494.487,70.39z"/>
<path fill="#FFFFFF" d="M566.223,87.836c-7.06,1.846-13.96,2.769-20.698,2.769c-14.912,0-22.368-7.998-22.368-23.994
	c0-14.766,7.295-22.149,21.885-22.149c3.105,0,6.284,0.732,9.536,2.197V27.763h11.646V87.836z M554.577,56.503
	c-2.402-1.582-5.42-2.373-9.053-2.373c-7.236,0-10.854,4.058-10.854,12.173c0,9.639,3.765,14.458,11.294,14.458
	c3.047,0,5.918-0.425,8.613-1.274V56.503z"/>
<path fill="#FFFFFF" d="M595.507,44.462c14.004,0,21.006,7.149,21.006,21.445c0,1.904-0.132,3.809-0.396,5.713h-30.63
	c0,6.504,4.775,9.756,14.326,9.756c4.658,0,9.316-0.44,13.975-1.318v9.229c-4.072,0.879-9.023,1.318-14.854,1.318
	c-16.728,0-25.093-7.866-25.093-23.599C573.842,51.977,581.063,44.462,595.507,44.462z M585.487,63.534h19.688v-0.352
	c0-6.387-3.223-9.58-9.668-9.58C589.354,53.603,586.015,56.913,585.487,63.534z"/>
<path fill="#FFFFFF" d="M624.088,90.605V44.462h9.009l1.45,5.889c4.043-3.926,8.32-5.889,12.832-5.889v9.404
	c-4.336,0-8.218,1.802-11.646,5.405v31.333H624.088z"/>
<path fill="#FFFFFF" d="M652.801,88.407v-9.668c5.127,2.051,11.045,3.076,17.754,3.076c5.01,0,7.515-1.611,7.515-4.834
	c0-3.076-1.685-4.614-5.054-4.614h-8.35c-9.375,0-14.062-4.614-14.062-13.843c0-9.668,6.841-14.502,20.522-14.502
	c5.801,0,11.265,0.879,16.392,2.637v9.668c-5.127-2.051-10.693-3.076-16.699-3.076c-6.299,0-9.448,1.611-9.448,4.834
	c0,3.076,1.831,4.614,5.493,4.614h7.471c10.254,0,15.381,4.614,15.381,13.843c0,9.668-6.533,14.502-19.6,14.502
	C663.699,91.044,657.928,90.165,652.801,88.407z"/>
<rect x="185.647" y="61.023" fill="none" width="9" height="0"/>
<path fill="#FFFFFF" d="M127.9,41.438c0.003,0.57-0.004,1.141-0.022,1.719l-0.081,2.703c-0.701,23.795-18.741,43.264-40.091,43.264
	h-2.425H54.857l14.97-41.537h-36.05L8.543,121.489h36.051v0.007h41.192h3.43c30.193,0,55.708-25.128,56.702-55.842l0.113-3.49
	c0.026-0.743,0.035-1.481,0.029-2.217c-0.105-23.439-13.219-43.675-32.516-53.529C122.321,14.92,127.841,27.44,127.9,41.438z"/>
<path fill="#FFFFFF" d="M36.856,34.746h18.027h36.419c8.398,0,15.504,5.823,17.479,13.63c2.507-4.596,3.931-9.856,3.931-15.433
	c0-17.845-14.6-32.445-32.444-32.445H58.637L0.852,0.495l0,0C1.797,19.495,17.633,34.746,36.856,34.746z"/>
</svg>
