<?xml version="1.0" encoding="utf-8"?>
<!-- Generator: Adobe Illustrator 25.2.3, SVG Export Plug-In . SVG Version: 6.00 Build 0)  -->
<svg version="1.1" id="레이어_1" xmlns="http://www.w3.org/2000/svg" xmlns:xlink="http://www.w3.org/1999/xlink" x="0px"
	 y="0px" viewBox="0 0 487.21 120.6" style="enable-background:new 0 0 487.21 120.6;" xml:space="preserve">
<style type="text/css">
	.st0{clip-path:url(#SVGID_2_);fill:url(#SVGID_3_);}
	.st1{clip-path:url(#SVGID_5_);fill:url(#SVGID_6_);}
	.st2{fill:#3E3E3E;}
	.st3{font-family:'NeoSansPro-Regular';}
	.st4{font-size:70px;}
	.st5{font-family:'NanumGothic';}
	.st6{font-size:34px;}
	.st7{fill:none;}
	.st8{clip-path:url(#SVGID_8_);fill:url(#SVGID_9_);}
	.st9{clip-path:url(#SVGID_12_);fill:url(#SVGID_13_);}
</style>
<g>
	<g>
		<defs>
			<path id="SVGID_1_" d="M108.53,47.96L108.53,47.96C108.53,47.96,108.53,47.96,108.53,47.96L108.53,47.96 M36.65,34.34h18.01
				h36.39c8.39,0,15.49,5.82,17.47,13.62c2.5-4.59,3.93-9.85,3.93-15.42l0,0c0-17.83-14.59-32.42-32.42-32.42H58.41l-57.75,0
				C1.61,19.1,17.44,34.34,36.65,34.34"/>
		</defs>
		<clipPath id="SVGID_2_">
			<use xlink:href="#SVGID_1_"  style="overflow:visible;"/>
		</clipPath>
		
			<linearGradient id="SVGID_3_" gradientUnits="userSpaceOnUse" x1="34.0872" y1="551.7496" x2="34.5716" y2="551.7496" gradientTransform="matrix(160.682 160.682 160.682 -160.682 -94116.7734 83163.1641)">
			<stop  offset="0" style="stop-color:#0AD57D"/>
			<stop  offset="1" style="stop-color:#04C26F"/>
		</linearGradient>
		<polygon class="st0" points="56.56,-55.78 136.38,24.03 56.56,103.85 -23.25,24.03 		"/>
	</g>
	<g>
		<defs>
			<path id="SVGID_4_" d="M127.87,40.79c0,0.57,0,1.14-0.02,1.72l-0.08,2.7c-0.7,23.78-18.73,43.23-40.06,43.23h-2.42h-30.4
				l14.96-41.51H33.82L8.6,120.79h36.03v0.01h41.16h3.43c30.17,0,55.67-25.11,56.66-55.8l0.11-3.49c0.03-0.74,0.03-1.48,0.03-2.22
				c-0.1-23.42-13.21-43.64-32.49-53.49C122.3,14.3,127.81,26.81,127.87,40.79"/>
		</defs>
		<clipPath id="SVGID_5_">
			<use xlink:href="#SVGID_4_"  style="overflow:visible;"/>
		</clipPath>
		
			<linearGradient id="SVGID_6_" gradientUnits="userSpaceOnUse" x1="33.7951" y1="551.9587" x2="34.2796" y2="551.9587" gradientTransform="matrix(157.0069 157.0069 157.0069 -157.0069 -91920.0078 81388.6172)">
			<stop  offset="0" style="stop-color:#0DAED0"/>
			<stop  offset="1" style="stop-color:#0087BA"/>
		</linearGradient>
		<polygon class="st1" points="77.31,-62.91 203.53,63.3 77.31,189.51 -48.9,63.3 		"/>
	</g>
	<text transform="matrix(1 0 0 1 185.2386 108.8794)"><tspan x="0" y="0" class="st2 st3 st4">SR </tspan><tspan x="102.06" y="0" class="st2 st5 st4">시스템</tspan></text>
	<text transform="matrix(1 0 0 1 188.9183 31.1577)" class="st2 st3 st6">Dain Leaders</text>
	<rect x="185.06" y="92.77" class="st7" width="9" height="0"/>
	<g>
		<defs>
			<path id="SVGID_7_" d="M108.53,47.95L108.53,47.95C108.53,47.95,108.53,47.95,108.53,47.95L108.53,47.95 M36.61,34.32h18.03
				h36.42c8.4,0,15.5,5.82,17.48,13.63c2.51-4.6,3.93-9.86,3.93-15.43l0,0c0-17.84-14.6-32.44-32.44-32.44H58.39l-57.79,0
				C1.55,19.07,17.39,34.32,36.61,34.32"/>
		</defs>
		<clipPath id="SVGID_8_">
			<use xlink:href="#SVGID_7_"  style="overflow:visible;"/>
		</clipPath>
		<linearGradient id="SVGID_9_" gradientUnits="userSpaceOnUse" x1="-23.336" y1="24.009" x2="136.406" y2="24.009">
			<stop  offset="0.2159" style="stop-color:#3F9E5A"/>
			<stop  offset="0.7726" style="stop-color:#216335"/>
		</linearGradient>
		<polygon class="st8" points="56.54,-55.86 136.41,24.01 56.54,103.88 -23.34,24.01 		"/>
	</g>
	<g>
		<defs>
			<path id="SVGID_10_" d="M127.9,40.78c0,0.57,0,1.14-0.02,1.72l-0.08,2.7c-0.7,23.8-18.74,43.26-40.09,43.26h-2.43H54.85
				l14.97-41.54H33.77l-25.23,73.9h36.05v0.01h41.19h3.43c30.19,0,55.71-25.13,56.7-55.84l0.11-3.49c0.03-0.74,0.03-1.48,0.03-2.22
				c-0.1-23.44-13.22-43.67-32.52-53.53C122.32,14.26,127.84,26.78,127.9,40.78"/>
		</defs>
		<linearGradient id="SVGID_11_" gradientUnits="userSpaceOnUse" x1="44.6792" y1="63.301" x2="127.5629" y2="63.301">
			<stop  offset="0" style="stop-color:#1689CA"/>
			<stop  offset="1" style="stop-color:#005387"/>
		</linearGradient>
		<use xlink:href="#SVGID_10_"  style="overflow:visible;fill:url(#SVGID_11_);"/>
		<clipPath id="SVGID_12_">
			<use xlink:href="#SVGID_10_"  style="overflow:visible;"/>
		</clipPath>
		
			<linearGradient id="SVGID_13_" gradientUnits="userSpaceOnUse" x1="33.7949" y1="551.9586" x2="34.2798" y2="551.9586" gradientTransform="matrix(157.0069 157.0069 157.0069 -157.0069 -91920.0078 81388.6172)">
			<stop  offset="0" style="stop-color:#1689CA"/>
			<stop  offset="1" style="stop-color:#005387"/>
		</linearGradient>
		<polygon class="st9" points="77.3,-63 203.6,63.3 77.3,189.6 -49,63.3 		"/>
	</g>
</g>
</svg>
